<svg xmlns="http://www.w3.org/2000/svg" width="125" height="36" fill="none"><path stroke="#fff" stroke-width="3" d="M16.566 3.188c8.327 0 15.067 6.72 15.067 15 0 8.278-6.74 15-15.067 15S1.5 26.466 1.5 18.188c0-8.28 6.74-15 15.066-15Z"/><path stroke="#fff" stroke-width="3" d="M27.218 7.579c1.384 1.378 1.87 3.766 1.072 6.86-.79 3.058-2.786 6.518-5.864 9.584s-6.552 5.054-9.621 5.84c-3.108.796-5.506.311-6.89-1.067s-1.869-3.765-1.07-6.86c.79-3.058 2.785-6.518 5.863-9.584s6.553-5.053 9.623-5.84c3.107-.795 5.504-.311 6.887 1.067Z"/><path stroke="#fff" stroke-width="3" d="M5.914 7.578c1.384-1.378 3.782-1.862 6.89-1.066 3.069.786 6.543 2.774 9.62 5.84 3.079 3.065 5.075 6.525 5.864 9.583.8 3.095.313 5.483-1.07 6.86-1.384 1.379-3.782 1.863-6.889 1.067-3.07-.786-6.544-2.773-9.622-5.84-3.078-3.065-5.074-6.526-5.863-9.583-.799-3.095-.313-5.483 1.07-6.86Z"/><path fill="#fff" d="M47.327 25.68c3.547 0 5.941-1.845 5.941-4.793 0-6.232-8.313-3.577-8.313-6.862 0-.923.836-1.553 2.169-1.553 1.513 0 2.462.81 2.575 2.048h3.23c-.09-2.993-2.394-4.95-5.805-4.95-3.208 0-5.467 1.845-5.467 4.455 0 6.187 8.2 3.825 8.2 6.907 0 1.193-1.016 1.823-2.53 1.823-1.672 0-2.733-1.013-2.869-2.61h-3.253c.136 3.352 2.53 5.535 6.122 5.535m6.71 4.41h3.14v-5.603c.61.765 1.717 1.193 3.004 1.193 3.276 0 5.49-2.318 5.49-5.85 0-3.533-2.034-5.85-5.219-5.85-1.468 0-2.598.54-3.275 1.417V14.16h-3.14zm5.76-7.11c-1.694 0-2.801-1.26-2.801-3.15 0-1.913 1.107-3.173 2.801-3.173 1.65 0 2.779 1.26 2.779 3.173 0 1.89-1.13 3.15-2.779 3.15m6.633 2.52h3.14v-6.21c0-1.463.972-2.52 2.35-2.52 1.31 0 2.214.99 2.214 2.362V25.5h3.14v-7.065c0-2.61-1.672-4.455-4.225-4.455-1.581 0-2.823.652-3.479 1.755V9.232h-3.14zm19.628-3.848c-.249.968-1.085 1.463-2.35 1.463-1.58 0-2.597-.99-2.823-2.588h8.177c.023-.247.046-.585.046-1.012 0-2.588-1.604-5.535-5.625-5.535-3.863 0-5.625 2.947-5.625 5.827 0 2.858 1.987 5.873 5.85 5.873 2.802 0 4.97-1.575 5.422-4.028zm-2.575-5.377c1.513 0 2.394 1.012 2.484 2.272H80.93c.271-1.575 1.13-2.272 2.553-2.272m13.86.495v-2.61h-1.62c-1.378 0-2.237.472-2.847 1.89v-1.89h-3.162V25.5h3.162v-5.513c0-1.935.7-3.217 2.26-3.217zm10.843-2.61h-3.162v6.21c0 1.44-.972 2.52-2.35 2.52-1.287 0-2.191-.99-2.191-2.363V14.16h-3.14v7.065c0 2.587 1.671 4.455 4.224 4.455 1.559 0 2.824-.675 3.457-1.755V25.5h3.162zm1.356 11.34h3.14V9.232h-3.14zm12.105-3.848c-.249.968-1.085 1.463-2.35 1.463-1.581 0-2.598-.99-2.824-2.588h8.178c.023-.247.045-.585.045-1.012 0-2.588-1.604-5.535-5.625-5.535-3.863 0-5.625 2.947-5.625 5.827 0 2.858 1.988 5.873 5.851 5.873 2.801 0 4.97-1.575 5.422-4.028zm-2.576-5.377c1.514 0 2.395 1.012 2.485 2.272h-5.037c.271-1.575 1.129-2.272 2.552-2.272"/></svg>