<svg xmlns="http://www.w3.org/2000/svg" width="136" height="36" fill="none"><g fill="#fff" clip-path="url(#a)"><path d="m20.376 3.091-3.154-.848-2.658 9.956-2.4-8.988-3.153.848 2.592 9.711-6.457-6.48-2.31 2.317 7.084 7.11-8.82-2.374-.846 3.167 9.638 2.59a6.6 6.6 0 0 1-.169-1.487c0-3.62 2.924-6.555 6.53-6.555 3.608 0 6.532 2.935 6.532 6.555a6.6 6.6 0 0 1-.167 1.478l8.76 2.355.844-3.165-9.676-2.602 8.821-2.373-.845-3.165-9.676 2.602 6.458-6.482-2.31-2.317-6.984 7.01 2.366-8.864Z"/><path d="M22.609 20.129a6.55 6.55 0 0 1-1.625 3.004l6.346 6.369 2.309-2.317zM20.92 23.2a6.5 6.5 0 0 1-2.918 1.731l2.309 8.65 3.154-.849zm-3.036 1.763a6.5 6.5 0 0 1-3.373-.03l-2.31 8.657 3.153.848zm-3.484-.062a6.5 6.5 0 0 1-2.867-1.757l-6.361 6.384 2.309 2.318L14.4 24.9Zm-2.92-1.814a6.55 6.55 0 0 1-1.583-2.967l-8.788 2.364.845 3.165z"/></g><path fill="#fff" d="M51.202 9.682v11.407L43.916 9.682h-2.914v15.75h2.914V14.114l7.286 11.318h2.914V9.682zm4.228 2.948h3.003V9.681H55.43v2.947Zm.044 12.802v-11.25h2.915v11.25zm15.453-5.625c0-3.893-2.757-5.738-5.671-5.76-2.937-.023-5.65 1.867-5.65 5.76s2.713 5.782 5.65 5.76c2.668-.023 4.506-1.26 5.358-3.308l-2.264-.945c-.695 1.395-1.794 1.89-3.094 1.913-1.121.022-2.399-.518-2.668-2.52h8.272c.045-.293.067-.585.067-.9m-5.671-3.443c1.12.023 2.264.63 2.623 2.25h-5.246c.381-1.642 1.524-2.272 2.623-2.25m12.407-.09v-2.227h-1.839v-3.015l-2.914.9v2.115h-1.838v2.227h1.838v5.828c0 2.205.18 3.33 3.587 3.33h.784v-2.565h-.784c-.538 0-.673-.09-.673-.765v-5.828zm4.33 6.706 6.187-6.346v-2.452H78.9v2.452h6.007L78.72 22.98v2.453h9.528V22.98zm7.299-.72 2.937-.45c.202 1.124 1.525 1.552 2.332 1.552.829 0 2.264-.18 2.264-1.53 0-2.633-7.196.652-7.196-4.388 0-3.24 3.743-3.42 4.931-3.42 1.121 0 4.372.18 5.044 2.79l-2.78.585c-.246-1.192-1.501-1.417-2.174-1.417-.672 0-2.107.157-2.107 1.462 0 2.61 7.196-.72 7.196 4.388 0 3.442-3.946 3.735-5.178 3.735-1.121 0-4.686-.293-5.269-3.308Zm14.233-2.453c0 2.745 1.457 3.577 2.981 3.555 1.368-.023 2.309-.585 2.87-2.16l2.399 1.17c-.875 2.295-3.004 3.172-5.269 3.195-2.936.022-5.895-1.868-5.895-5.76 0-3.893 2.959-5.783 5.895-5.76 2.265.022 4.394.9 5.269 3.195l-2.399 1.17c-.561-1.575-1.502-2.138-2.87-2.16-1.524-.023-2.981.81-2.981 3.555m16.073-5.805c-1.502 0-2.869.787-3.744 2.475V9.682h-2.914v15.75h2.914v-3.983c0-5.152 2.13-5.58 2.915-5.58 1.255 0 1.434 1.305 1.434 3.218v6.345h2.915v-6.345c0-2.385-.381-5.085-3.52-5.085m15.824 5.805c0-3.893-2.758-5.738-5.672-5.76-2.937-.023-5.649 1.867-5.649 5.76s2.712 5.782 5.649 5.76c2.668-.023 4.506-1.26 5.358-3.308l-2.264-.945c-.695 1.395-1.794 1.89-3.094 1.913-1.121.022-2.398-.518-2.668-2.52h8.273c.044-.293.067-.585.067-.9m-5.672-3.443c1.121.023 2.264.63 2.623 2.25h-5.246c.381-1.642 1.525-2.272 2.623-2.25"/><defs><clipPath id="a"><path fill="#fff" d="M0 1.5h32.879v33H0z"/></clipPath></defs></svg>